<?xml version="1.0" standalone="no"?><!DOCTYPE svg PUBLIC "-//W3C//DTD SVG 1.1//EN" "http://www.w3.org/Graphics/SVG/1.1/DTD/svg11.dtd"><svg t="1540002208465" class="icon" style="" viewBox="0 0 1251 1024" version="1.1" xmlns="http://www.w3.org/2000/svg" p-id="6537" xmlns:xlink="http://www.w3.org/1999/xlink" width="78.1875" height="64"><defs><style type="text/css"></style></defs><path d="M1217.329022 1021.585651a33.846018 33.846018 0 0 1-21.999912-8.461505l-56.410031-50.204927a329.434578 329.434578 0 0 0-431.536732 0l-56.410031 50.204927a33.846018 33.846018 0 0 1-44.563924 0l-56.41003-50.204927a329.434578 329.434578 0 0 0-431.536733 0L56.410596 1015.380547a33.846018 33.846018 0 0 1-56.410031-25.384513V307.434666a33.846018 33.846018 0 0 1 67.692037 0v605.843726a397.690714 397.690714 0 0 1 520.664581 0l35.538319 31.025517 35.538319-31.025517a397.690714 397.690714 0 0 1 520.664581 0V307.434666a33.846018 33.846018 0 1 1 67.692036 0v680.304966a33.846018 33.846018 0 0 1-33.846018 33.846019z" fill="#FF0000" p-id="6538"></path><path d="M625.587803 811.740338a39.487021 39.487021 0 0 1-25.948614-9.589706l-43.435724-37.79472a232.973426 232.973426 0 0 0-305.178264 0l-43.435724 37.79472a39.487021 39.487021 0 0 1-65.999735-29.897316V247.075933A247.640033 247.640033 0 0 1 389.229775 0h28.769116a247.640033 247.640033 0 0 1 247.640033 247.075933v524.613283a39.487021 39.487021 0 0 1-23.128112 36.102419 38.922921 38.922921 0 0 1-16.923009 3.948703z m-222.25552-183.8967a311.383368 311.383368 0 0 1 182.204398 56.410031V247.075933a169.230091 169.230091 0 0 0-169.230091-169.230091H389.229775a169.230091 169.230091 0 0 0-169.230091 169.230091v438.870037a311.383368 311.383368 0 0 1 183.332599-58.102332z" fill="#FF0000" p-id="6539"></path><path d="M625.587803 811.740338a38.922921 38.922921 0 0 1-16.358909-3.384602 39.487021 39.487021 0 0 1-23.128113-36.10242V247.075933A247.640033 247.640033 0 0 1 833.176715 0h28.769115a247.640033 247.640033 0 0 1 247.075933 247.075933v524.613283a39.487021 39.487021 0 0 1-65.999735 29.897316l-43.435724-37.79472a232.973426 232.973426 0 0 0-305.178264 0l-43.435724 37.79472a39.487021 39.487021 0 0 1-25.384513 10.153806z m207.588912-733.330396a169.230091 169.230091 0 0 0-169.230092 169.230091v438.870037a313.075669 313.075669 0 0 1 364.972897 0V247.075933a169.230091 169.230091 0 0 0-169.230091-169.230091z" fill="#FF0000" p-id="6540"></path></svg>