<?xml version="1.0" standalone="no"?><!DOCTYPE svg PUBLIC "-//W3C//DTD SVG 1.1//EN" "http://www.w3.org/Graphics/SVG/1.1/DTD/svg11.dtd"><svg t="1540124439959" class="icon" style="" viewBox="0 0 1024 1024" version="1.1" xmlns="http://www.w3.org/2000/svg" p-id="3630" xmlns:xlink="http://www.w3.org/1999/xlink" width="64" height="64"><defs><style type="text/css"></style></defs><path d="M510.872899 985.526847c-22.549242 0-43.769082-7.239455-61.36197-20.923616-0.65025-0.4913-2.340902-1.712326-4.804628-3.504127-97.819347-71.159077-274.608001-210.500529-359.660764-344.278727C49.036111 560.667636-0.036125 484.12593-0.036125 375.093375c0-185.610386 140.699753-336.620222 313.644705-336.620222 75.40738 0 141.747379 28.784421 197.820645 85.703013 55.632541-56.268341 123.20079-85.703013 197.90012-85.703013 172.619826 0 313.045029 151.002611 313.045029 336.620222 0 109.047005-49.079461 185.588711-84.915487 241.466902-85.869188 133.792648-262.730092 273.32195-360.534989 344.618302-2.405927 1.748451-4.060453 2.947802-4.847979 3.547478l-1.054851 0.787525c-18.113088 13.09171-38.913879 20.013265-60.148169 20.013265zM313.60858 125.173217c-125.137092 0-226.944641 112.117632-226.944642 249.920158 0 83.629436 37.822903 142.614379 71.195203 194.656092 56.860792 89.438341 179.873732 206.324476 337.848472 321.238186 3.713653 2.702152 6.112354 4.465053 7.037155 5.187553 2.059127 1.603951 4.219403 2.658802 8.128131 2.658802 1.069301 0 4.298878 0 9.096282-3.395752 1.206576-0.903126 3.179002-2.355352 5.873929-4.320553 158.097566-115.246059 281.435631-232.24057 338.383123-320.978085 33.61795-52.424638 71.448077-111.409582 71.448077-195.053468 0-137.802526-101.540224-249.920158-226.344965-249.920158-64.244747 0-117.558061 29.889847-162.99612 91.367417a43.350032 43.350032 0 0 1-34.74505 17.585662h-0.122825a43.350032 43.350032 0 0 1-34.716151-17.390587c-46.081084-61.60762-99.444973-91.555267-163.140619-91.555267z" fill="#FF0000" p-id="3631"></path></svg>