<?xml version="1.0" standalone="no"?><!DOCTYPE svg PUBLIC "-//W3C//DTD SVG 1.1//EN" "http://www.w3.org/Graphics/SVG/1.1/DTD/svg11.dtd"><svg t="1542288978867" class="icon" style="" viewBox="0 0 1024 1024" version="1.1" xmlns="http://www.w3.org/2000/svg" p-id="2070" xmlns:xlink="http://www.w3.org/1999/xlink" width="64" height="64"><defs><style type="text/css"></style></defs><path d="M445 347.9H199.1c-8.7 0-15.8-7.1-15.8-15.8 0-8.7 7.1-15.8 15.8-15.8H445c8.7 0 15.8 7.1 15.8 15.8 0 8.7-7 15.8-15.8 15.8zM436.3 478.1H199.1c-8.7 0-15.8-7.1-15.8-15.8 0-8.7 7.1-15.8 15.8-15.8h237.2c8.7 0 15.8 7.1 15.8 15.8 0 8.7-7.1 15.8-15.8 15.8zM357.4 608.2H199.1c-8.7 0-15.8-7.1-15.8-15.8 0-8.7 7.1-15.8 15.8-15.8h158.3c8.7 0 15.8 7.1 15.8 15.8 0 8.8-7.1 15.8-15.8 15.8z" fill="#E86262" p-id="2071"></path><path d="M484 853.6c-0.8 0-1.6 0-2.4-0.1l-284.1-13.3c-47.6-2.2-84.9-45-84.9-97.5v-502c0-28.3 11.1-55.2 30.6-73.7 17.1-16.4 39.1-24.6 61.9-23.8l281.4 13.1c30.3 1.4 54 28.6 54 61.9v573.2c0 18-7.1 35-19.4 46.8-10.5 10.1-23.5 15.4-37.1 15.4zM201.2 174.9c-13.2 0-26 5.3-36.3 15.1-13.2 12.6-20.8 31.1-20.8 50.8v502c0 35.5 24.1 64.5 54.8 65.9L483 822c8.1 0.7 12.8-3.3 16.1-6.4 6.1-5.8 9.6-14.6 9.6-23.9V218.4c0-16.1-10.7-29.7-23.8-30.3L203.5 175c-0.8-0.1-1.5-0.1-2.3-0.1z" fill="#E86262" p-id="2072"></path><path d="M463.4 858.7c-1 0-2.1 0-3.1-0.1l-328.2-13C76.6 843.5 33 800.1 33 746.9V237c0-26.3 10.7-51.1 30.1-69.7 20.4-19.6 48.8-30 77.5-29l335.1 13.2c36.3 1.4 64.7 29.9 64.7 64.8v568.6c0 19.7-8 38.2-22.5 52.1-14.4 13.9-34.1 21.7-54.5 21.7z m-1.9-31.6c13 0.6 25.5-4.2 34.5-12.8 8.2-7.9 12.8-18.3 12.8-29.3V216.3c0-17.8-15.1-32.4-34.4-33.2l-335.1-13.2c-20.5-0.7-40.2 6.6-54.4 20.2-13.1 12.6-20.4 29.3-20.4 46.9v509.9c0 36.2 30.2 65.7 68.7 67.2l328.3 13z" fill="#E86262" p-id="2073"></path><path d="M845.1 347.9h-246c-8.7 0-15.8-7.1-15.8-15.8 0-8.7 7.1-15.8 15.8-15.8H845c8.7 0 15.8 7.1 15.8 15.8 0.1 8.7-7 15.8-15.7 15.8zM836.3 478.1H599.1c-8.7 0-15.8-7.1-15.8-15.8 0-8.7 7.1-15.8 15.8-15.8h237.2c8.7 0 15.8 7.1 15.8 15.8 0 8.7-7 15.8-15.8 15.8zM757.4 608.2H599.1c-8.7 0-15.8-7.1-15.8-15.8 0-8.7 7.1-15.8 15.8-15.8h158.3c8.7 0 15.8 7.1 15.8 15.8 0 8.8-7.1 15.8-15.8 15.8z" fill="#E86262" p-id="2074"></path><path d="M560.2 853.6c-13.6 0-26.7-5.3-36.9-15.2-12.3-11.8-19.4-28.8-19.4-46.8V218.4c0-33.3 23.7-60.5 54-61.9l281.4-13.1c22.8-1 44.7 7.4 61.9 23.8 19.4 18.5 30.6 45.4 30.6 73.7v502c0 52.4-37.3 95.2-84.9 97.5l-284.1 13.3c-1-0.1-1.8-0.1-2.6-0.1z m282.7-678.7c-0.8 0-1.5 0-2.3 0.1l-281.4 13.1c-13.1 0.6-23.8 14.2-23.8 30.3v573.2c0 9.4 3.5 18.1 9.6 23.9 3.3 3.1 9 7 16.1 6.4l284.1-13.3c30.7-1.4 54.8-30.4 54.8-65.9v-502c0-19.7-7.6-38.2-20.8-50.8-10.2-9.7-23-15-36.3-15z" fill="#E86262" p-id="2075"></path><path d="M580.7 858.7c-20.4 0-40.1-7.8-54.5-21.7-14.5-13.9-22.5-32.4-22.5-52.1V216.3c0-34.9 28.4-63.3 64.7-64.8l335.1-13.2c28.9-0.9 57.1 9.4 77.5 29 19.4 18.6 30.1 43.4 30.1 69.7v509.9c0 53.2-43.5 96.6-99.1 98.8l-328.2 13h-3.1z m327.1-688.9c-1 0-2 0-3 0.1l-335.1 13.2c-19.3 0.8-34.4 15.3-34.4 33.2v568.6c0 11 4.5 21.4 12.8 29.3 9 8.7 21.8 13.4 34.5 12.8l328.2-13c38.5-1.5 68.7-31 68.7-67.2V237c0-17.6-7.2-34.3-20.4-46.9-13.5-13-32.1-20.3-51.3-20.3z" fill="#E86262" p-id="2076"></path></svg>