<?xml version="1.0" standalone="no"?><!DOCTYPE svg PUBLIC "-//W3C//DTD SVG 1.1//EN" "http://www.w3.org/Graphics/SVG/1.1/DTD/svg11.dtd"><svg t="1540002223983" class="icon" style="" viewBox="0 0 1024 1024" version="1.1" xmlns="http://www.w3.org/2000/svg" p-id="7405" xmlns:xlink="http://www.w3.org/1999/xlink" width="64" height="64"><defs><style type="text/css"></style></defs><path d="M493.263264 986.120274c-271.803429 0-492.916363-221.112933-492.916363-492.89692 0-271.764544 221.112933-492.877477 492.916363-492.877477 271.764544 0 492.877477 221.112933 492.877477 492.877477C986.139717 765.008364 765.027807 986.120274 493.263264 986.120274zM493.263264 79.960123c-227.915873 0-413.30314 185.387267-413.30314 413.264255s185.387267 413.283698 413.30314 413.283698c227.875964 0 413.264255-185.407734 413.264255-413.283698S721.139228 79.960123 493.263264 79.960123z" p-id="7406" fill="#FF0000"></path><path d="M831.929254 775.629073l191.722602 191.722602-56.287997 56.287997-191.722602-191.722602 56.287997-56.287997Z" p-id="7407" fill="#FF0000"></path></svg>