<?xml version="1.0" standalone="no"?><!DOCTYPE svg PUBLIC "-//W3C//DTD SVG 1.1//EN" "http://www.w3.org/Graphics/SVG/1.1/DTD/svg11.dtd"><svg t="1540021664541" class="icon" style="" viewBox="0 0 1024 1024" version="1.1" xmlns="http://www.w3.org/2000/svg" p-id="2931" xmlns:xlink="http://www.w3.org/1999/xlink" width="64" height="64"><defs><style type="text/css"></style></defs><path d="M842 452a15 15 0 0 0 30 0A300 300 0 0 0 572 152a15 15 0 0 0 0 30 270 270 0 0 1 270 270zM305.6 58.4A90 90 0 0 0 152 122v412.8L58.4 628.4a90 90 0 0 0 0 127.2l210 210a90 90 0 0 0 127.2 0L489.2 872H902a90 90 0 0 0 63.6-153.6z m141.3 771.3l-93.6 93.6a30 30 0 0 1-42.3 0l-210-210a30 30 0 0 1 0-42.3l93.6-93.6 252.6 252.6z m42.3-17.7a60 60 0 0 0-13.5 2.7L209.3 548a60 60 0 0 0 2.7-13.2v-360L850.7 812z m440.4-18.6A30 30 0 0 1 902 812h-9L212 131V122a30 30 0 0 1 51.3-21.3l660 660a30 30 0 0 1 6.3 32.7z" fill="#FF0000" p-id="2932"></path><path d="M572 92a360 360 0 0 1 360 360 30 30 0 0 0 60 0A420 420 0 0 0 572 32a30 30 0 0 0 0 60z" fill="#FF0000" p-id="2933"></path></svg>