<?xml version="1.0" standalone="no"?><!DOCTYPE svg PUBLIC "-//W3C//DTD SVG 1.1//EN" "http://www.w3.org/Graphics/SVG/1.1/DTD/svg11.dtd"><svg t="1540124422071" class="icon" style="" viewBox="0 0 1024 1024" version="1.1" xmlns="http://www.w3.org/2000/svg" p-id="2218" xmlns:xlink="http://www.w3.org/1999/xlink" width="64" height="64"><defs><style type="text/css"></style></defs><path d="M960 696.576V113.792c0-31.424-28.672-56.96-64-56.96H128c-35.328 0-64 25.536-64 56.96v796.416c0 31.424 28.672 56.896 64 56.896h552.32L960 696.576zM128 0h768c70.72 0 128 50.944 128 113.792v604.928L708.48 1024H128c-70.72 0-128-50.944-128-113.792V113.792C0 50.944 57.28 0 128 0z" fill="#FF0000" p-id="2219"></path><path d="M219.456 768a32 32 0 1 1 0-64H512a32 32 0 1 1 0 64H219.456zM219.456 544a32 32 0 1 1 0-64h512a32 32 0 1 1 0 64h-512zM219.456 320a32 32 0 1 1 0-64h585.088a32 32 0 0 1 0 64H219.52zM704 992h-64v-240c0-62.528 54.144-112 119.552-112H992v64h-232.448c-31.296 0-55.552 22.144-55.552 48v240z" fill="#FF0000" p-id="2220"></path></svg>