<?xml version="1.0" standalone="no"?><!DOCTYPE svg PUBLIC "-//W3C//DTD SVG 1.1//EN" "http://www.w3.org/Graphics/SVG/1.1/DTD/svg11.dtd"><svg t="1540002078573" class="icon" style="" viewBox="0 0 1024 1024" version="1.1" xmlns="http://www.w3.org/2000/svg" p-id="3624" xmlns:xlink="http://www.w3.org/1999/xlink" width="64" height="64"><defs><style type="text/css"></style></defs><path d="M864 160h-704c-54.4 0-96 41.6-96 96v512c0 54.4 41.6 96 96 96h704c54.4 0 96-41.6 96-96v-512c0-54.4-41.6-96-96-96z m32 608c0 19.2-12.8 32-32 32h-704c-19.2 0-32-12.8-32-32v-352h768v352z m0-416h-768v-96c0-19.2 12.8-32 32-32h704c19.2 0 32 12.8 32 32v96z" p-id="3625" fill="#FF0000"></path><path d="M224 672h128c19.2 0 32-12.8 32-32s-12.8-32-32-32h-128c-19.2 0-32 12.8-32 32s12.8 32 32 32z" p-id="3626" fill="#FF0000"></path></svg>