<?xml version="1.0" standalone="no"?><!DOCTYPE svg PUBLIC "-//W3C//DTD SVG 1.1//EN" "http://www.w3.org/Graphics/SVG/1.1/DTD/svg11.dtd"><svg t="1540124455957" class="icon" style="" viewBox="0 0 1024 1024" version="1.1" xmlns="http://www.w3.org/2000/svg" p-id="3851" xmlns:xlink="http://www.w3.org/1999/xlink" width="64" height="64"><defs><style type="text/css"></style></defs><path d="M921.594 985.203h-801.331c-31.757 0-57.6-25.843-57.6-57.6v-804.8c0-31.757 25.843-57.6 57.6-57.6h517.338v38.4h-517.338c-10.586 0-19.2 8.614-19.2 19.2v804.8c0 10.586 8.614 19.2 19.2 19.2h801.331c10.586 0 19.2-8.614 19.2-19.2v-514.803h38.4v514.803c0 31.757-25.83 57.6-57.6 57.6z" p-id="3852" fill="#FF0000"></path><path d="" p-id="3853" fill="#FF0000"></path><path d="" p-id="3854" fill="#FF0000"></path><path d="M944.249 98.867v0.038c-22.374-22.118-52.006-34.189-83.482-34.010-31.462 0.179-60.966 12.57-83.098 34.944l-396.365 413.888c-2.048 2.074-3.571 4.531-4.544 7.27l-77.965 218.15c-2.573 7.258-0.742 15.322 4.71 20.723 3.789 3.738 8.858 5.734 14.042 5.696 2.253-0.013 4.557-0.422 6.758-1.229l217.28-80.384c2.726-0.998 5.171-2.598 7.219-4.634l396.378-413.888c22.118-22.374 34.189-52.006 34.022-83.482-0.192-31.462-12.582-60.966-34.957-83.085zM405.485 555.418l99.93 99.942-168.282 63.949 68.352-163.891zM537.888 633.523l-110.566-110.579 315.405-331.443 111.168 109.939-316.006 332.083zM916.998 237.606l-35.277 35.661-111.168-109.939 35.264-35.661c14.682-14.848 34.266-23.066 55.13-23.181s40.538 7.885 55.386 22.579c14.848 14.682 23.066 34.266 23.194 55.13s-7.898 40.538-22.579 55.386l0.051 0.026z" p-id="3855" fill="#FF0000"></path></svg>