<?xml version="1.0" standalone="no"?><!DOCTYPE svg PUBLIC "-//W3C//DTD SVG 1.1//EN" "http://www.w3.org/Graphics/SVG/1.1/DTD/svg11.dtd"><svg t="1540127341049" class="icon" style="" viewBox="0 0 1024 1024" version="1.1" xmlns="http://www.w3.org/2000/svg" p-id="4111" xmlns:xlink="http://www.w3.org/1999/xlink" width="64" height="64"><defs><style type="text/css"></style></defs><path d="M627.0459 529.35743L431.66307 724.73826q-17.239985 17.239985-34.47997 0-17.238985-17.239985 0-34.47997l195.38383-195.38183q17.239985-17.239985 34.47897 0 17.239985 17.239985 0 34.47997z" fill="#FF0000" p-id="4112"></path><path d="M592.51593 529.24943L397.1351 333.8666q-17.239985-17.239985 0-34.47897 17.239985-17.239985 34.47997 0L626.9949 494.77046q17.239985 17.239985 0 34.47997-17.239985 17.238985-34.47997 0z" fill="#FF0000" p-id="4113"></path><path d="M512 1024A511.991555 511.991555 0 1 1 674.536859 26.023867a24.379979 24.379979 0 1 1-15.277987 46.15996 463.229597 463.229597 0 1 0 250.956782 205.121822 24.379979 24.379979 0 1 1 41.933963-24.705979A511.991555 511.991555 0 0 1 512 1024z" fill="#FF0000" p-id="4114"></path></svg>